<svg xmlns="http://www.w3.org/2000/svg" xmlns:xlink="http://www.w3.org/1999/xlink" version="1.1" data-diagram-type="STATE" style="width:582px;height:538px;background:#FFFFFF;" width="582px" height="538px" viewBox="0 0 582 538" zoomAndPan="magnify" preserveAspectRatio="none" contentStyleType="text/css"><?plantuml 1.2026.8?><defs/><g font-family="sans-serif" lengthAdjust="spacing"><g class="title" data-source-line="5"><text x="193.657" y="26.24" fill="#000" font-size="14" textLength="187.687" font-weight="700" font-family="Noto Sans CJK TC">部分退款：單筆退款紀錄狀態</text></g><rect x="204" y="140.272" width="58" height="40" fill="#F1F1F1" style="stroke:#181818;stroke-width:0.5;" rx="12.5" ry="12.5"/><text x="209" y="167.248" fill="#000" font-size="16" textLength="48" font-family="Noto Sans CJK TC">處理中</text><rect x="204" y="243.272" width="58" height="40" fill="#F1F1F1" style="stroke:#181818;stroke-width:0.5;" rx="12.5" ry="12.5"/><text x="209" y="270.248" fill="#000" font-size="16" textLength="48" font-family="Noto Sans CJK TC">待確認</text><rect x="6" y="346.272" width="58" height="40" fill="#F1F1F1" style="stroke:#181818;stroke-width:0.5;" rx="12.5" ry="12.5"/><text x="11" y="373.248" fill="#000" font-size="16" textLength="48" font-family="Noto Sans CJK TC">已成功</text><rect x="322" y="346.272" width="58" height="40" fill="#F1F1F1" style="stroke:#181818;stroke-width:0.5;" rx="12.5" ry="12.5"/><text x="327" y="373.248" fill="#000" font-size="16" textLength="48" font-family="Noto Sans CJK TC">已失敗</text><g class="start_entity" data-qualified-name=".start." id="ent0005" data-source-line="10"><ellipse cx="233" cy="63.272" rx="10" ry="10" fill="#222" style="stroke:#222;stroke-width:1;"/></g><g class="link" data-entity-1="ent0005" data-entity-2="ent0001" id="lnk6" data-link-type="dependency"><polygon points="233,140.187,237,131.187,233,135.187,229,131.187,233,140.187" fill="#181818" style="stroke:#181818;stroke-width:1;stroke-linejoin:miter;stroke-miterlimit:10;"/><path d="M233,77.305 C233,92.798 233,116.224 233,135.187" style="stroke:#181818;stroke-width:1;" fill="none"/><text x="235" y="115.832" fill="#000" font-size="16" textLength="160" font-family="Noto Sans CJK TC">已驗證且原子占用額度</text></g><g class="link" data-entity-1="ent0001" data-entity-2="ent0003" id="lnk7" data-link-type="dependency"><polygon points="31.027,346.014,33.543,336.492,30.231,341.078,25.645,337.766,31.027,346.014" fill="#181818" style="stroke:#181818;stroke-width:1;stroke-linejoin:miter;stroke-miterlimit:10;"/><path d="M203.657,165.577 C162,173.318 86.412,193.679 47,243.272 C23.563,272.764 26.002,314.859 30.231,341.078" style="stroke:#181818;stroke-width:1;" fill="none"/><text x="49" y="270.332" fill="#000" font-size="16" textLength="144" font-family="Noto Sans CJK TC">確認成功／結算一次</text></g><g class="link" data-entity-1="ent0001" data-entity-2="ent0004" id="lnk8" data-link-type="dependency"><polygon points="380.017,360.777,389.705,362.547,384.876,359.6,387.823,354.771,380.017,360.777" fill="#181818" style="stroke:#181818;stroke-width:1;stroke-linejoin:miter;stroke-miterlimit:10;"/><path d="M262.013,165.246 C287.72,169.866 325.357,179.411 353,198.272 C401.334,231.251 415.697,246.034 435,301.272 C438.959,312.6 441.556,318.221 435,328.272 C422.899,346.825 404.034,354.962 384.876,359.6" style="stroke:#181818;stroke-width:1;" fill="none"/><text x="430" y="270.332" fill="#000" font-size="16" textLength="144" font-family="Noto Sans CJK TC">確認失敗／釋放占用</text></g><g class="link" data-entity-1="ent0001" data-entity-2="ent0002" id="lnk9" data-link-type="dependency"><polygon points="233,243.2,237,234.2,233,238.2,229,234.2,233,243.2" fill="#181818" style="stroke:#181818;stroke-width:1;stroke-linejoin:miter;stroke-miterlimit:10;"/><path d="M233,180.746 C233,198.745 233,220.33 233,238.2" style="stroke:#181818;stroke-width:1;" fill="none"/><text x="235" y="218.832" fill="#000" font-size="16" textLength="112" font-family="Noto Sans CJK TC">逾時或無法確認</text></g><g class="link" data-entity-1="ent0002" data-entity-2="ent0003" id="lnk10" data-link-type="dependency"><polygon points="35.775,346.125,40.772,337.638,36.343,341.157,32.824,336.729,35.775,346.125" fill="#181818" style="stroke:#181818;stroke-width:1;stroke-linejoin:miter;stroke-miterlimit:10;"/><path d="M203.737,274.011 C193.188,277.279 181.138,280.733 170,283.272 C119.56,294.768 94.179,267.488 55,301.272 C42.129,312.371 38.002,326.659 36.343,341.157" style="stroke:#181818;stroke-width:1;" fill="none"/><text x="57" y="321.832" fill="#000" font-size="16" textLength="176" font-family="Noto Sans CJK TC">查詢確認成功／結算一次</text></g><g class="link" data-entity-1="ent0002" data-entity-2="ent0004" id="lnk11" data-link-type="dependency"><polygon points="321.76,360.758,313.843,354.899,316.879,359.673,312.106,362.709,321.76,360.758" fill="#181818" style="stroke:#181818;stroke-width:1;stroke-linejoin:miter;stroke-miterlimit:10;"/><path d="M235.206,283.308 C237.765,297.363 243.259,316.09 255,328.272 C272.726,346.662 295.723,354.966 316.879,359.673" style="stroke:#181818;stroke-width:1;" fill="none"/><text x="257" y="321.832" fill="#000" font-size="16" textLength="176" font-family="Noto Sans CJK TC">查詢確認失敗／釋放占用</text></g><g class="legend" data-source-line="16"><rect x="128.501" y="408.272" width="317.999" height="111.36" fill="#DDD" style="stroke:#000;stroke-width:1;" rx="7.5" ry="7.5"/><text x="133.501" y="429.512" fill="#000" font-size="14" textLength="293.999" font-family="Noto Sans CJK TC">可退額度＝已付－已退－處理中及未知的占用。</text><text x="133.501" y="449.784" fill="#000" font-size="14" textLength="307.999" font-family="Noto Sans CJK TC">未知結果持續保留占用，人工接手也不自動釋放。</text><text x="133.501" y="470.056" fill="#000" font-size="14" textLength="279.999" font-family="Noto Sans CJK TC">終態重複通知：回傳既有紀錄，不重複結算。</text><text x="133.501" y="490.328" fill="#000" font-size="14" textLength="223.999" font-family="Noto Sans CJK TC">衝突通知需查核，不直接反轉終態。</text><text x="133.501" y="510.599" fill="#000" font-size="14" textLength="279.999" font-family="Noto Sans CJK TC">本圖不包含訂單整體狀態與供應商對帳實作。</text></g><?plantuml-src VP8_Rzf06CPtVufhnaePkdJeq2LIXbQAAj5ELOShNAaLi14-LAMJG_aRS6304Fw5W494I4ZQ0efB2VqmzTtP4r-XPuuWXA9kFZ_lxtsVU-vz4ed2O1Y243nGOnXeOOIX0YLjNrOYC0h3880-mLW8xweAteDX1FPKh08VL3Imy-erUBlpUAbF_eh0i-VIPpc000f7y05NDNzKZc1PLIGiun02xhSUoQHSNQVNi_cqHietRB0yif7kvXCifzDaJj8mn0XiELMJ5LEsDTW2K0DlegeVQPgi11zqCakopiJf6mlzdRAlg5-KbNZtasQAvAYr47qnln-X00gioUJy1pKh2taNoY6klN_w0MnllrmR1Lu0NkbULfn1rhPAvBX51aLYdB5IpsqRP78XhTLww6eG9uKvuM8-BR1naTrKR8jVjxs92GChHbZZZ9lEqT9C3DnabXVcaAlFQ3LECsMMQDEXANf83_gcBThgEfUT_vbR9rVErh77_OLG42a1y575M0rBf73BdrQaD9ysUOpsxvFvrF3or7N-iNfUKZYYZJvhTLaj8LhzrUFIyjUuI4yRD7_89ddxJvEPLL4nd-RjoOJSTUbnbsPpzg-MRHbEkazofl3ajM3ZE5ydDsquvsbNh_5stjRLJqbyI2iTsiYAhVDwMOOe4pbuiDDkilwXmDo6pgzFponHokeZFfOK3ES-AsO8mzUaKUOooIT9yShfnVc2KtFaNfN4NZkPj3shqtIMc2dotI3MaDnUsFSD3-R1YVZ-0G00?></g></svg>